<svg width="172" height="171" viewBox="0 0 172 171" fill="none" xmlns="http://www.w3.org/2000/svg">
<path d="M13.344 4.352C13.4933 4.352 13.6107 4.39467 13.696 4.48C13.7813 4.56533 13.824 4.68267 13.824 4.832V8.992C13.824 9.14133 13.7813 9.25867 13.696 9.344C13.6107 9.42933 13.4933 9.472 13.344 9.472H9.632C9.52533 9.472 9.472 9.52533 9.472 9.632V13.344C9.472 13.4933 9.42933 13.6107 9.344 13.696C9.25867 13.7813 9.14133 13.824 8.992 13.824H4.832C4.68267 13.824 4.56533 13.7813 4.48 13.696C4.39467 13.6107 4.352 13.4933 4.352 13.344V9.632C4.352 9.52533 4.29867 9.472 4.192 9.472H0.48C0.330667 9.472 0.213333 9.42933 0.128 9.344C0.0426667 9.25867 0 9.14133 0 8.992V4.832C0 4.68267 0.0426667 4.56533 0.128 4.48C0.213333 4.39467 0.330667 4.352 0.48 4.352H4.192C4.29867 4.352 4.352 4.29867 4.352 4.192V0.48C4.352 0.330667 4.39467 0.213334 4.48 0.128C4.56533 0.0426668 4.68267 0 4.832 0H8.992C9.14133 0 9.25867 0.0426668 9.344 0.128C9.42933 0.213334 9.472 0.330667 9.472 0.48V4.192C9.472 4.29867 9.52533 4.352 9.632 4.352H13.344Z" fill="#8BFBA3"/>
<path d="M52.64 4.352C52.7894 4.352 52.9067 4.39467 52.992 4.48C53.0774 4.56533 53.12 4.68267 53.12 4.832V8.992C53.12 9.14133 53.0774 9.25867 52.992 9.344C52.9067 9.42933 52.7894 9.472 52.64 9.472H48.928C48.8214 9.472 48.768 9.52533 48.768 9.632V13.344C48.768 13.4933 48.7254 13.6107 48.64 13.696C48.5547 13.7813 48.4374 13.824 48.288 13.824H44.128C43.9787 13.824 43.8614 13.7813 43.776 13.696C43.6907 13.6107 43.648 13.4933 43.648 13.344V9.632C43.648 9.52533 43.5947 9.472 43.488 9.472H39.776C39.6267 9.472 39.5094 9.42933 39.424 9.344C39.3387 9.25867 39.296 9.14133 39.296 8.992V4.832C39.296 4.68267 39.3387 4.56533 39.424 4.48C39.5094 4.39467 39.6267 4.352 39.776 4.352H43.488C43.5947 4.352 43.648 4.29867 43.648 4.192V0.48C43.648 0.330667 43.6907 0.213334 43.776 0.128C43.8614 0.0426668 43.9787 0 44.128 0H48.288C48.4374 0 48.5547 0.0426668 48.64 0.128C48.7254 0.213334 48.768 0.330667 48.768 0.48V4.192C48.768 4.29867 48.8214 4.352 48.928 4.352H52.64Z" fill="#8BFBA3"/>
<path d="M91.936 4.352C92.0854 4.352 92.2027 4.39467 92.288 4.48C92.3734 4.56533 92.416 4.68267 92.416 4.832V8.992C92.416 9.14133 92.3734 9.25867 92.288 9.344C92.2027 9.42933 92.0854 9.472 91.936 9.472H88.224C88.1174 9.472 88.064 9.52533 88.064 9.632V13.344C88.064 13.4933 88.0214 13.6107 87.936 13.696C87.8507 13.7813 87.7334 13.824 87.584 13.824H83.424C83.2747 13.824 83.1574 13.7813 83.072 13.696C82.9867 13.6107 82.944 13.4933 82.944 13.344V9.632C82.944 9.52533 82.8907 9.472 82.784 9.472H79.072C78.9227 9.472 78.8054 9.42933 78.72 9.344C78.6347 9.25867 78.592 9.14133 78.592 8.992V4.832C78.592 4.68267 78.6347 4.56533 78.72 4.48C78.8054 4.39467 78.9227 4.352 79.072 4.352H82.784C82.8907 4.352 82.944 4.29867 82.944 4.192V0.48C82.944 0.330667 82.9867 0.213334 83.072 0.128C83.1574 0.0426668 83.2747 0 83.424 0H87.584C87.7334 0 87.8507 0.0426668 87.936 0.128C88.0214 0.213334 88.064 0.330667 88.064 0.48V4.192C88.064 4.29867 88.1174 4.352 88.224 4.352H91.936Z" fill="#8BFBA3"/>
<path d="M131.232 4.352C131.381 4.352 131.499 4.39467 131.584 4.48C131.669 4.56533 131.712 4.68267 131.712 4.832V8.992C131.712 9.14133 131.669 9.25867 131.584 9.344C131.499 9.42933 131.381 9.472 131.232 9.472H127.52C127.413 9.472 127.36 9.52533 127.36 9.632V13.344C127.36 13.4933 127.317 13.6107 127.232 13.696C127.147 13.7813 127.029 13.824 126.88 13.824H122.72C122.571 13.824 122.453 13.7813 122.368 13.696C122.283 13.6107 122.24 13.4933 122.24 13.344V9.632C122.24 9.52533 122.187 9.472 122.08 9.472H118.368C118.219 9.472 118.101 9.42933 118.016 9.344C117.931 9.25867 117.888 9.14133 117.888 8.992V4.832C117.888 4.68267 117.931 4.56533 118.016 4.48C118.101 4.39467 118.219 4.352 118.368 4.352H122.08C122.187 4.352 122.24 4.29867 122.24 4.192V0.48C122.24 0.330667 122.283 0.213334 122.368 0.128C122.453 0.0426668 122.571 0 122.72 0H126.88C127.029 0 127.147 0.0426668 127.232 0.128C127.317 0.213334 127.36 0.330667 127.36 0.48V4.192C127.36 4.29867 127.413 4.352 127.52 4.352H131.232Z" fill="#8BFBA3"/>
<path d="M170.528 4.352C170.677 4.352 170.795 4.39467 170.88 4.48C170.965 4.56533 171.008 4.68267 171.008 4.832V8.992C171.008 9.14133 170.965 9.25867 170.88 9.344C170.795 9.42933 170.677 9.472 170.528 9.472H166.816C166.709 9.472 166.656 9.52533 166.656 9.632V13.344C166.656 13.4933 166.613 13.6107 166.528 13.696C166.443 13.7813 166.325 13.824 166.176 13.824H162.016C161.867 13.824 161.749 13.7813 161.664 13.696C161.579 13.6107 161.536 13.4933 161.536 13.344V9.632C161.536 9.52533 161.483 9.472 161.376 9.472H157.664C157.515 9.472 157.397 9.42933 157.312 9.344C157.227 9.25867 157.184 9.14133 157.184 8.992V4.832C157.184 4.68267 157.227 4.56533 157.312 4.48C157.397 4.39467 157.515 4.352 157.664 4.352H161.376C161.483 4.352 161.536 4.29867 161.536 4.192V0.48C161.536 0.330667 161.579 0.213334 161.664 0.128C161.749 0.0426668 161.867 0 162.016 0H166.176C166.325 0 166.443 0.0426668 166.528 0.128C166.613 0.213334 166.656 0.330667 166.656 0.48V4.192C166.656 4.29867 166.709 4.352 166.816 4.352H170.528Z" fill="#8BFBA3"/>
<path d="M13.344 43.608C13.4933 43.608 13.6107 43.6507 13.696 43.736C13.7813 43.8213 13.824 43.9387 13.824 44.088V48.248C13.824 48.3973 13.7813 48.5147 13.696 48.6C13.6107 48.6853 13.4933 48.728 13.344 48.728H9.632C9.52533 48.728 9.472 48.7813 9.472 48.888V52.6C9.472 52.7493 9.42933 52.8667 9.344 52.952C9.25867 53.0373 9.14133 53.08 8.992 53.08H4.832C4.68267 53.08 4.56533 53.0373 4.48 52.952C4.39467 52.8667 4.352 52.7493 4.352 52.6V48.888C4.352 48.7813 4.29867 48.728 4.192 48.728H0.48C0.330667 48.728 0.213333 48.6853 0.128 48.6C0.0426667 48.5147 0 48.3973 0 48.248V44.088C0 43.9387 0.0426667 43.8213 0.128 43.736C0.213333 43.6507 0.330667 43.608 0.48 43.608H4.192C4.29867 43.608 4.352 43.5547 4.352 43.448V39.736C4.352 39.5867 4.39467 39.4693 4.48 39.384C4.56533 39.2987 4.68267 39.256 4.832 39.256H8.992C9.14133 39.256 9.25867 39.2987 9.344 39.384C9.42933 39.4693 9.472 39.5867 9.472 39.736V43.448C9.472 43.5547 9.52533 43.608 9.632 43.608H13.344Z" fill="#8BFBA3"/>
<path d="M52.64 43.608C52.7894 43.608 52.9067 43.6507 52.992 43.736C53.0774 43.8213 53.12 43.9387 53.12 44.088V48.248C53.12 48.3973 53.0774 48.5147 52.992 48.6C52.9067 48.6853 52.7894 48.728 52.64 48.728H48.928C48.8214 48.728 48.768 48.7813 48.768 48.888V52.6C48.768 52.7493 48.7254 52.8667 48.64 52.952C48.5547 53.0373 48.4374 53.08 48.288 53.08H44.128C43.9787 53.08 43.8614 53.0373 43.776 52.952C43.6907 52.8667 43.648 52.7493 43.648 52.6V48.888C43.648 48.7813 43.5947 48.728 43.488 48.728H39.776C39.6267 48.728 39.5094 48.6853 39.424 48.6C39.3387 48.5147 39.296 48.3973 39.296 48.248V44.088C39.296 43.9387 39.3387 43.8213 39.424 43.736C39.5094 43.6507 39.6267 43.608 39.776 43.608H43.488C43.5947 43.608 43.648 43.5547 43.648 43.448V39.736C43.648 39.5867 43.6907 39.4693 43.776 39.384C43.8614 39.2987 43.9787 39.256 44.128 39.256H48.288C48.4374 39.256 48.5547 39.2987 48.64 39.384C48.7254 39.4693 48.768 39.5867 48.768 39.736V43.448C48.768 43.5547 48.8214 43.608 48.928 43.608H52.64Z" fill="#8BFBA3"/>
<path d="M91.936 43.608C92.0854 43.608 92.2027 43.6507 92.288 43.736C92.3734 43.8213 92.416 43.9387 92.416 44.088V48.248C92.416 48.3973 92.3734 48.5147 92.288 48.6C92.2027 48.6853 92.0854 48.728 91.936 48.728H88.224C88.1174 48.728 88.064 48.7813 88.064 48.888V52.6C88.064 52.7493 88.0214 52.8667 87.936 52.952C87.8507 53.0373 87.7334 53.08 87.584 53.08H83.424C83.2747 53.08 83.1574 53.0373 83.072 52.952C82.9867 52.8667 82.944 52.7493 82.944 52.6V48.888C82.944 48.7813 82.8907 48.728 82.784 48.728H79.072C78.9227 48.728 78.8054 48.6853 78.72 48.6C78.6347 48.5147 78.592 48.3973 78.592 48.248V44.088C78.592 43.9387 78.6347 43.8213 78.72 43.736C78.8054 43.6507 78.9227 43.608 79.072 43.608H82.784C82.8907 43.608 82.944 43.5547 82.944 43.448V39.736C82.944 39.5867 82.9867 39.4693 83.072 39.384C83.1574 39.2987 83.2747 39.256 83.424 39.256H87.584C87.7334 39.256 87.8507 39.2987 87.936 39.384C88.0214 39.4693 88.064 39.5867 88.064 39.736V43.448C88.064 43.5547 88.1174 43.608 88.224 43.608H91.936Z" fill="#8BFBA3"/>
<path d="M131.232 43.608C131.381 43.608 131.499 43.6507 131.584 43.736C131.669 43.8213 131.712 43.9387 131.712 44.088V48.248C131.712 48.3973 131.669 48.5147 131.584 48.6C131.499 48.6853 131.381 48.728 131.232 48.728H127.52C127.413 48.728 127.36 48.7813 127.36 48.888V52.6C127.36 52.7493 127.317 52.8667 127.232 52.952C127.147 53.0373 127.029 53.08 126.88 53.08H122.72C122.571 53.08 122.453 53.0373 122.368 52.952C122.283 52.8667 122.24 52.7493 122.24 52.6V48.888C122.24 48.7813 122.187 48.728 122.08 48.728H118.368C118.219 48.728 118.101 48.6853 118.016 48.6C117.931 48.5147 117.888 48.3973 117.888 48.248V44.088C117.888 43.9387 117.931 43.8213 118.016 43.736C118.101 43.6507 118.219 43.608 118.368 43.608H122.08C122.187 43.608 122.24 43.5547 122.24 43.448V39.736C122.24 39.5867 122.283 39.4693 122.368 39.384C122.453 39.2987 122.571 39.256 122.72 39.256H126.88C127.029 39.256 127.147 39.2987 127.232 39.384C127.317 39.4693 127.36 39.5867 127.36 39.736V43.448C127.36 43.5547 127.413 43.608 127.52 43.608H131.232Z" fill="#8BFBA3"/>
<path d="M170.528 43.608C170.677 43.608 170.795 43.6507 170.88 43.736C170.965 43.8213 171.008 43.9387 171.008 44.088V48.248C171.008 48.3973 170.965 48.5147 170.88 48.6C170.795 48.6853 170.677 48.728 170.528 48.728H166.816C166.709 48.728 166.656 48.7813 166.656 48.888V52.6C166.656 52.7493 166.613 52.8667 166.528 52.952C166.443 53.0373 166.325 53.08 166.176 53.08H162.016C161.867 53.08 161.749 53.0373 161.664 52.952C161.579 52.8667 161.536 52.7493 161.536 52.6V48.888C161.536 48.7813 161.483 48.728 161.376 48.728H157.664C157.515 48.728 157.397 48.6853 157.312 48.6C157.227 48.5147 157.184 48.3973 157.184 48.248V44.088C157.184 43.9387 157.227 43.8213 157.312 43.736C157.397 43.6507 157.515 43.608 157.664 43.608H161.376C161.483 43.608 161.536 43.5547 161.536 43.448V39.736C161.536 39.5867 161.579 39.4693 161.664 39.384C161.749 39.2987 161.867 39.256 162.016 39.256H166.176C166.325 39.256 166.443 39.2987 166.528 39.384C166.613 39.4693 166.656 39.5867 166.656 39.736V43.448C166.656 43.5547 166.709 43.608 166.816 43.608H170.528Z" fill="#8BFBA3"/>
<path d="M13.344 82.864C13.4933 82.864 13.6107 82.9067 13.696 82.992C13.7813 83.0774 13.824 83.1947 13.824 83.344V87.504C13.824 87.6534 13.7813 87.7707 13.696 87.856C13.6107 87.9414 13.4933 87.984 13.344 87.984H9.632C9.52533 87.984 9.472 88.0374 9.472 88.144V91.856C9.472 92.0054 9.42933 92.1227 9.344 92.208C9.25867 92.2934 9.14133 92.336 8.992 92.336H4.832C4.68267 92.336 4.56533 92.2934 4.48 92.208C4.39467 92.1227 4.352 92.0054 4.352 91.856V88.144C4.352 88.0374 4.29867 87.984 4.192 87.984H0.48C0.330667 87.984 0.213333 87.9414 0.128 87.856C0.0426667 87.7707 0 87.6534 0 87.504V83.344C0 83.1947 0.0426667 83.0774 0.128 82.992C0.213333 82.9067 0.330667 82.864 0.48 82.864H4.192C4.29867 82.864 4.352 82.8107 4.352 82.704V78.992C4.352 78.8427 4.39467 78.7254 4.48 78.64C4.56533 78.5547 4.68267 78.512 4.832 78.512H8.992C9.14133 78.512 9.25867 78.5547 9.344 78.64C9.42933 78.7254 9.472 78.8427 9.472 78.992V82.704C9.472 82.8107 9.52533 82.864 9.632 82.864H13.344Z" fill="#8BFBA3"/>
<path d="M52.64 82.864C52.7894 82.864 52.9067 82.9067 52.992 82.992C53.0774 83.0774 53.12 83.1947 53.12 83.344V87.504C53.12 87.6534 53.0774 87.7707 52.992 87.856C52.9067 87.9414 52.7894 87.984 52.64 87.984H48.928C48.8214 87.984 48.768 88.0374 48.768 88.144V91.856C48.768 92.0054 48.7254 92.1227 48.64 92.208C48.5547 92.2934 48.4374 92.336 48.288 92.336H44.128C43.9787 92.336 43.8614 92.2934 43.776 92.208C43.6907 92.1227 43.648 92.0054 43.648 91.856V88.144C43.648 88.0374 43.5947 87.984 43.488 87.984H39.776C39.6267 87.984 39.5094 87.9414 39.424 87.856C39.3387 87.7707 39.296 87.6534 39.296 87.504V83.344C39.296 83.1947 39.3387 83.0774 39.424 82.992C39.5094 82.9067 39.6267 82.864 39.776 82.864H43.488C43.5947 82.864 43.648 82.8107 43.648 82.704V78.992C43.648 78.8427 43.6907 78.7254 43.776 78.64C43.8614 78.5547 43.9787 78.512 44.128 78.512H48.288C48.4374 78.512 48.5547 78.5547 48.64 78.64C48.7254 78.7254 48.768 78.8427 48.768 78.992V82.704C48.768 82.8107 48.8214 82.864 48.928 82.864H52.64Z" fill="#8BFBA3"/>
<path d="M91.936 82.864C92.0854 82.864 92.2027 82.9067 92.288 82.992C92.3734 83.0774 92.416 83.1947 92.416 83.344V87.504C92.416 87.6534 92.3734 87.7707 92.288 87.856C92.2027 87.9414 92.0854 87.984 91.936 87.984H88.224C88.1174 87.984 88.064 88.0374 88.064 88.144V91.856C88.064 92.0054 88.0214 92.1227 87.936 92.208C87.8507 92.2934 87.7334 92.336 87.584 92.336H83.424C83.2747 92.336 83.1574 92.2934 83.072 92.208C82.9867 92.1227 82.944 92.0054 82.944 91.856V88.144C82.944 88.0374 82.8907 87.984 82.784 87.984H79.072C78.9227 87.984 78.8054 87.9414 78.72 87.856C78.6347 87.7707 78.592 87.6534 78.592 87.504V83.344C78.592 83.1947 78.6347 83.0774 78.72 82.992C78.8054 82.9067 78.9227 82.864 79.072 82.864H82.784C82.8907 82.864 82.944 82.8107 82.944 82.704V78.992C82.944 78.8427 82.9867 78.7254 83.072 78.64C83.1574 78.5547 83.2747 78.512 83.424 78.512H87.584C87.7334 78.512 87.8507 78.5547 87.936 78.64C88.0214 78.7254 88.064 78.8427 88.064 78.992V82.704C88.064 82.8107 88.1174 82.864 88.224 82.864H91.936Z" fill="#8BFBA3"/>
<path d="M131.232 82.864C131.381 82.864 131.499 82.9067 131.584 82.992C131.669 83.0774 131.712 83.1947 131.712 83.344V87.504C131.712 87.6534 131.669 87.7707 131.584 87.856C131.499 87.9414 131.381 87.984 131.232 87.984H127.52C127.413 87.984 127.36 88.0374 127.36 88.144V91.856C127.36 92.0054 127.317 92.1227 127.232 92.208C127.147 92.2934 127.029 92.336 126.88 92.336H122.72C122.571 92.336 122.453 92.2934 122.368 92.208C122.283 92.1227 122.24 92.0054 122.24 91.856V88.144C122.24 88.0374 122.187 87.984 122.08 87.984H118.368C118.219 87.984 118.101 87.9414 118.016 87.856C117.931 87.7707 117.888 87.6534 117.888 87.504V83.344C117.888 83.1947 117.931 83.0774 118.016 82.992C118.101 82.9067 118.219 82.864 118.368 82.864H122.08C122.187 82.864 122.24 82.8107 122.24 82.704V78.992C122.24 78.8427 122.283 78.7254 122.368 78.64C122.453 78.5547 122.571 78.512 122.72 78.512H126.88C127.029 78.512 127.147 78.5547 127.232 78.64C127.317 78.7254 127.36 78.8427 127.36 78.992V82.704C127.36 82.8107 127.413 82.864 127.52 82.864H131.232Z" fill="#8BFBA3"/>
<path d="M170.528 82.864C170.677 82.864 170.795 82.9067 170.88 82.992C170.965 83.0774 171.008 83.1947 171.008 83.344V87.504C171.008 87.6534 170.965 87.7707 170.88 87.856C170.795 87.9414 170.677 87.984 170.528 87.984H166.816C166.709 87.984 166.656 88.0374 166.656 88.144V91.856C166.656 92.0054 166.613 92.1227 166.528 92.208C166.443 92.2934 166.325 92.336 166.176 92.336H162.016C161.867 92.336 161.749 92.2934 161.664 92.208C161.579 92.1227 161.536 92.0054 161.536 91.856V88.144C161.536 88.0374 161.483 87.984 161.376 87.984H157.664C157.515 87.984 157.397 87.9414 157.312 87.856C157.227 87.7707 157.184 87.6534 157.184 87.504V83.344C157.184 83.1947 157.227 83.0774 157.312 82.992C157.397 82.9067 157.515 82.864 157.664 82.864H161.376C161.483 82.864 161.536 82.8107 161.536 82.704V78.992C161.536 78.8427 161.579 78.7254 161.664 78.64C161.749 78.5547 161.867 78.512 162.016 78.512H166.176C166.325 78.512 166.443 78.5547 166.528 78.64C166.613 78.7254 166.656 78.8427 166.656 78.992V82.704C166.656 82.8107 166.709 82.864 166.816 82.864H170.528Z" fill="#8BFBA3"/>
<path d="M13.344 122.12C13.4933 122.12 13.6107 122.163 13.696 122.248C13.7813 122.333 13.824 122.451 13.824 122.6V126.76C13.824 126.909 13.7813 127.027 13.696 127.112C13.6107 127.197 13.4933 127.24 13.344 127.24H9.632C9.52533 127.24 9.472 127.293 9.472 127.4V131.112C9.472 131.261 9.42933 131.379 9.344 131.464C9.25867 131.549 9.14133 131.592 8.992 131.592H4.832C4.68267 131.592 4.56533 131.549 4.48 131.464C4.39467 131.379 4.352 131.261 4.352 131.112V127.4C4.352 127.293 4.29867 127.24 4.192 127.24H0.48C0.330667 127.24 0.213333 127.197 0.128 127.112C0.0426667 127.027 0 126.909 0 126.76V122.6C0 122.451 0.0426667 122.333 0.128 122.248C0.213333 122.163 0.330667 122.12 0.48 122.12H4.192C4.29867 122.12 4.352 122.067 4.352 121.96V118.248C4.352 118.099 4.39467 117.981 4.48 117.896C4.56533 117.811 4.68267 117.768 4.832 117.768H8.992C9.14133 117.768 9.25867 117.811 9.344 117.896C9.42933 117.981 9.472 118.099 9.472 118.248V121.96C9.472 122.067 9.52533 122.12 9.632 122.12H13.344Z" fill="#8BFBA3"/>
<path d="M52.64 122.12C52.7894 122.12 52.9067 122.163 52.992 122.248C53.0774 122.333 53.12 122.451 53.12 122.6V126.76C53.12 126.909 53.0774 127.027 52.992 127.112C52.9067 127.197 52.7894 127.24 52.64 127.24H48.928C48.8214 127.24 48.768 127.293 48.768 127.4V131.112C48.768 131.261 48.7254 131.379 48.64 131.464C48.5547 131.549 48.4374 131.592 48.288 131.592H44.128C43.9787 131.592 43.8614 131.549 43.776 131.464C43.6907 131.379 43.648 131.261 43.648 131.112V127.4C43.648 127.293 43.5947 127.24 43.488 127.24H39.776C39.6267 127.24 39.5094 127.197 39.424 127.112C39.3387 127.027 39.296 126.909 39.296 126.76V122.6C39.296 122.451 39.3387 122.333 39.424 122.248C39.5094 122.163 39.6267 122.12 39.776 122.12H43.488C43.5947 122.12 43.648 122.067 43.648 121.96V118.248C43.648 118.099 43.6907 117.981 43.776 117.896C43.8614 117.811 43.9787 117.768 44.128 117.768H48.288C48.4374 117.768 48.5547 117.811 48.64 117.896C48.7254 117.981 48.768 118.099 48.768 118.248V121.96C48.768 122.067 48.8214 122.12 48.928 122.12H52.64Z" fill="#8BFBA3"/>
<path d="M91.936 122.12C92.0854 122.12 92.2027 122.163 92.288 122.248C92.3734 122.333 92.416 122.451 92.416 122.6V126.76C92.416 126.909 92.3734 127.027 92.288 127.112C92.2027 127.197 92.0854 127.24 91.936 127.24H88.224C88.1174 127.24 88.064 127.293 88.064 127.4V131.112C88.064 131.261 88.0214 131.379 87.936 131.464C87.8507 131.549 87.7334 131.592 87.584 131.592H83.424C83.2747 131.592 83.1574 131.549 83.072 131.464C82.9867 131.379 82.944 131.261 82.944 131.112V127.4C82.944 127.293 82.8907 127.24 82.784 127.24H79.072C78.9227 127.24 78.8054 127.197 78.72 127.112C78.6347 127.027 78.592 126.909 78.592 126.76V122.6C78.592 122.451 78.6347 122.333 78.72 122.248C78.8054 122.163 78.9227 122.12 79.072 122.12H82.784C82.8907 122.12 82.944 122.067 82.944 121.96V118.248C82.944 118.099 82.9867 117.981 83.072 117.896C83.1574 117.811 83.2747 117.768 83.424 117.768H87.584C87.7334 117.768 87.8507 117.811 87.936 117.896C88.0214 117.981 88.064 118.099 88.064 118.248V121.96C88.064 122.067 88.1174 122.12 88.224 122.12H91.936Z" fill="#8BFBA3"/>
<path d="M131.232 122.12C131.381 122.12 131.499 122.163 131.584 122.248C131.669 122.333 131.712 122.451 131.712 122.6V126.76C131.712 126.909 131.669 127.027 131.584 127.112C131.499 127.197 131.381 127.24 131.232 127.24H127.52C127.413 127.24 127.36 127.293 127.36 127.4V131.112C127.36 131.261 127.317 131.379 127.232 131.464C127.147 131.549 127.029 131.592 126.88 131.592H122.72C122.571 131.592 122.453 131.549 122.368 131.464C122.283 131.379 122.24 131.261 122.24 131.112V127.4C122.24 127.293 122.187 127.24 122.08 127.24H118.368C118.219 127.24 118.101 127.197 118.016 127.112C117.931 127.027 117.888 126.909 117.888 126.76V122.6C117.888 122.451 117.931 122.333 118.016 122.248C118.101 122.163 118.219 122.12 118.368 122.12H122.08C122.187 122.12 122.24 122.067 122.24 121.96V118.248C122.24 118.099 122.283 117.981 122.368 117.896C122.453 117.811 122.571 117.768 122.72 117.768H126.88C127.029 117.768 127.147 117.811 127.232 117.896C127.317 117.981 127.36 118.099 127.36 118.248V121.96C127.36 122.067 127.413 122.12 127.52 122.12H131.232Z" fill="#8BFBA3"/>
<path d="M170.528 122.12C170.677 122.12 170.795 122.163 170.88 122.248C170.965 122.333 171.008 122.451 171.008 122.6V126.76C171.008 126.909 170.965 127.027 170.88 127.112C170.795 127.197 170.677 127.24 170.528 127.24H166.816C166.709 127.24 166.656 127.293 166.656 127.4V131.112C166.656 131.261 166.613 131.379 166.528 131.464C166.443 131.549 166.325 131.592 166.176 131.592H162.016C161.867 131.592 161.749 131.549 161.664 131.464C161.579 131.379 161.536 131.261 161.536 131.112V127.4C161.536 127.293 161.483 127.24 161.376 127.24H157.664C157.515 127.24 157.397 127.197 157.312 127.112C157.227 127.027 157.184 126.909 157.184 126.76V122.6C157.184 122.451 157.227 122.333 157.312 122.248C157.397 122.163 157.515 122.12 157.664 122.12H161.376C161.483 122.12 161.536 122.067 161.536 121.96V118.248C161.536 118.099 161.579 117.981 161.664 117.896C161.749 117.811 161.867 117.768 162.016 117.768H166.176C166.325 117.768 166.443 117.811 166.528 117.896C166.613 117.981 166.656 118.099 166.656 118.248V121.96C166.656 122.067 166.709 122.12 166.816 122.12H170.528Z" fill="#8BFBA3"/>
<path d="M13.344 161.376C13.4933 161.376 13.6107 161.419 13.696 161.504C13.7813 161.589 13.824 161.707 13.824 161.856V166.016C13.824 166.165 13.7813 166.283 13.696 166.368C13.6107 166.453 13.4933 166.496 13.344 166.496H9.632C9.52533 166.496 9.472 166.549 9.472 166.656V170.368C9.472 170.517 9.42933 170.635 9.344 170.72C9.25867 170.805 9.14133 170.848 8.992 170.848H4.832C4.68267 170.848 4.56533 170.805 4.48 170.72C4.39467 170.635 4.352 170.517 4.352 170.368V166.656C4.352 166.549 4.29867 166.496 4.192 166.496H0.48C0.330667 166.496 0.213333 166.453 0.128 166.368C0.0426667 166.283 0 166.165 0 166.016V161.856C0 161.707 0.0426667 161.589 0.128 161.504C0.213333 161.419 0.330667 161.376 0.48 161.376H4.192C4.29867 161.376 4.352 161.323 4.352 161.216V157.504C4.352 157.355 4.39467 157.237 4.48 157.152C4.56533 157.067 4.68267 157.024 4.832 157.024H8.992C9.14133 157.024 9.25867 157.067 9.344 157.152C9.42933 157.237 9.472 157.355 9.472 157.504V161.216C9.472 161.323 9.52533 161.376 9.632 161.376H13.344Z" fill="#8BFBA3"/>
<path d="M52.64 161.376C52.7894 161.376 52.9067 161.419 52.992 161.504C53.0774 161.589 53.12 161.707 53.12 161.856V166.016C53.12 166.165 53.0774 166.283 52.992 166.368C52.9067 166.453 52.7894 166.496 52.64 166.496H48.928C48.8214 166.496 48.768 166.549 48.768 166.656V170.368C48.768 170.517 48.7254 170.635 48.64 170.72C48.5547 170.805 48.4374 170.848 48.288 170.848H44.128C43.9787 170.848 43.8614 170.805 43.776 170.72C43.6907 170.635 43.648 170.517 43.648 170.368V166.656C43.648 166.549 43.5947 166.496 43.488 166.496H39.776C39.6267 166.496 39.5094 166.453 39.424 166.368C39.3387 166.283 39.296 166.165 39.296 166.016V161.856C39.296 161.707 39.3387 161.589 39.424 161.504C39.5094 161.419 39.6267 161.376 39.776 161.376H43.488C43.5947 161.376 43.648 161.323 43.648 161.216V157.504C43.648 157.355 43.6907 157.237 43.776 157.152C43.8614 157.067 43.9787 157.024 44.128 157.024H48.288C48.4374 157.024 48.5547 157.067 48.64 157.152C48.7254 157.237 48.768 157.355 48.768 157.504V161.216C48.768 161.323 48.8214 161.376 48.928 161.376H52.64Z" fill="#8BFBA3"/>
<path d="M91.936 161.376C92.0854 161.376 92.2027 161.419 92.288 161.504C92.3734 161.589 92.416 161.707 92.416 161.856V166.016C92.416 166.165 92.3734 166.283 92.288 166.368C92.2027 166.453 92.0854 166.496 91.936 166.496H88.224C88.1174 166.496 88.064 166.549 88.064 166.656V170.368C88.064 170.517 88.0214 170.635 87.936 170.72C87.8507 170.805 87.7334 170.848 87.584 170.848H83.424C83.2747 170.848 83.1574 170.805 83.072 170.72C82.9867 170.635 82.944 170.517 82.944 170.368V166.656C82.944 166.549 82.8907 166.496 82.784 166.496H79.072C78.9227 166.496 78.8054 166.453 78.72 166.368C78.6347 166.283 78.592 166.165 78.592 166.016V161.856C78.592 161.707 78.6347 161.589 78.72 161.504C78.8054 161.419 78.9227 161.376 79.072 161.376H82.784C82.8907 161.376 82.944 161.323 82.944 161.216V157.504C82.944 157.355 82.9867 157.237 83.072 157.152C83.1574 157.067 83.2747 157.024 83.424 157.024H87.584C87.7334 157.024 87.8507 157.067 87.936 157.152C88.0214 157.237 88.064 157.355 88.064 157.504V161.216C88.064 161.323 88.1174 161.376 88.224 161.376H91.936Z" fill="#8BFBA3"/>
<path d="M131.232 161.376C131.381 161.376 131.499 161.419 131.584 161.504C131.669 161.589 131.712 161.707 131.712 161.856V166.016C131.712 166.165 131.669 166.283 131.584 166.368C131.499 166.453 131.381 166.496 131.232 166.496H127.52C127.413 166.496 127.36 166.549 127.36 166.656V170.368C127.36 170.517 127.317 170.635 127.232 170.72C127.147 170.805 127.029 170.848 126.88 170.848H122.72C122.571 170.848 122.453 170.805 122.368 170.72C122.283 170.635 122.24 170.517 122.24 170.368V166.656C122.24 166.549 122.187 166.496 122.08 166.496H118.368C118.219 166.496 118.101 166.453 118.016 166.368C117.931 166.283 117.888 166.165 117.888 166.016V161.856C117.888 161.707 117.931 161.589 118.016 161.504C118.101 161.419 118.219 161.376 118.368 161.376H122.08C122.187 161.376 122.24 161.323 122.24 161.216V157.504C122.24 157.355 122.283 157.237 122.368 157.152C122.453 157.067 122.571 157.024 122.72 157.024H126.88C127.029 157.024 127.147 157.067 127.232 157.152C127.317 157.237 127.36 157.355 127.36 157.504V161.216C127.36 161.323 127.413 161.376 127.52 161.376H131.232Z" fill="#8BFBA3"/>
<path d="M170.528 161.376C170.677 161.376 170.795 161.419 170.88 161.504C170.965 161.589 171.008 161.707 171.008 161.856V166.016C171.008 166.165 170.965 166.283 170.88 166.368C170.795 166.453 170.677 166.496 170.528 166.496H166.816C166.709 166.496 166.656 166.549 166.656 166.656V170.368C166.656 170.517 166.613 170.635 166.528 170.72C166.443 170.805 166.325 170.848 166.176 170.848H162.016C161.867 170.848 161.749 170.805 161.664 170.72C161.579 170.635 161.536 170.517 161.536 170.368V166.656C161.536 166.549 161.483 166.496 161.376 166.496H157.664C157.515 166.496 157.397 166.453 157.312 166.368C157.227 166.283 157.184 166.165 157.184 166.016V161.856C157.184 161.707 157.227 161.589 157.312 161.504C157.397 161.419 157.515 161.376 157.664 161.376H161.376C161.483 161.376 161.536 161.323 161.536 161.216V157.504C161.536 157.355 161.579 157.237 161.664 157.152C161.749 157.067 161.867 157.024 162.016 157.024H166.176C166.325 157.024 166.443 157.067 166.528 157.152C166.613 157.237 166.656 157.355 166.656 157.504V161.216C166.656 161.323 166.709 161.376 166.816 161.376H170.528Z" fill="#8BFBA3"/>
</svg>
