<svg width="95" height="95" viewBox="0 0 95 95" fill="none" xmlns="http://www.w3.org/2000/svg">
<rect width="41.3043" height="41.3043" rx="3" fill="#3BDED7"/>
<rect y="53.6954" width="41.3043" height="41.3043" rx="3" fill="#3BDED7"/>
<rect x="53.6956" width="41.3043" height="41.3043" rx="3" fill="#3BDED7"/>
<path d="M93.5657 66.6987C94.0119 66.6987 94.3625 66.8261 94.6175 67.0811C94.8724 67.3361 94.9999 67.6866 94.9999 68.1328V80.5624C94.9999 81.0086 94.8724 81.3591 94.6175 81.6141C94.3625 81.8691 94.0119 81.9966 93.5657 81.9966H82.4747C82.156 81.9966 81.9967 82.1559 81.9967 82.4746V93.5656C81.9967 94.0118 81.8692 94.3624 81.6142 94.6173C81.3593 94.8723 81.0087 94.9998 80.5625 94.9998H68.133C67.6868 94.9998 67.3362 94.8723 67.0812 94.6173C66.8263 94.3624 66.6988 94.0118 66.6988 93.5656V82.4746C66.6988 82.1559 66.5394 81.9966 66.2207 81.9966H55.1297C54.6835 81.9966 54.333 81.8691 54.078 81.6141C53.823 81.3591 53.6956 81.0086 53.6956 80.5624V68.1328C53.6956 67.6866 53.823 67.3361 54.078 67.0811C54.333 66.8261 54.6835 66.6987 55.1297 66.6987H66.2207C66.5394 66.6987 66.6988 66.5393 66.6988 66.2206V55.1296C66.6988 54.6834 66.8263 54.3328 67.0812 54.0779C67.3362 53.8229 67.6868 53.6954 68.133 53.6954H80.5625C81.0087 53.6954 81.3593 53.8229 81.6142 54.0779C81.8692 54.3328 81.9967 54.6834 81.9967 55.1296V66.2206C81.9967 66.5393 82.156 66.6987 82.4747 66.6987H93.5657Z" fill="#3BDED7"/>
</svg>
