<svg width="88" height="90" viewBox="0 0 88 90" fill="none" xmlns="http://www.w3.org/2000/svg">
<path d="M0.216187 15C0.216187 11.0218 1.75383 7.20644 4.49084 4.3934C7.22786 1.58035 10.9401 0 14.8108 0H73.1892C77.0599 0 80.7721 1.58035 83.5091 4.3934C86.2461 7.20644 87.7838 11.0218 87.7838 15V60C87.7838 63.9782 86.2461 67.7936 83.5091 70.6066C80.7721 73.4196 77.0599 75 73.1892 75H58.5946V78.75C58.5946 79.7446 58.979 80.6984 59.6632 81.4017C60.3475 82.1049 61.2755 82.5 62.2432 82.5H65.8919C66.8595 82.5 67.7876 82.8951 68.4718 83.5983C69.1561 84.3016 69.5405 85.2554 69.5405 86.25C69.5405 87.2446 69.1561 88.1984 68.4718 88.9017C67.7876 89.6049 66.8595 90 65.8919 90H22.1081C21.1404 90 20.2123 89.6049 19.5281 88.9017C18.8438 88.1984 18.4594 87.2446 18.4594 86.25C18.4594 85.2554 18.8438 84.3016 19.5281 83.5983C20.2123 82.8951 21.1404 82.5 22.1081 82.5H25.7567C26.7244 82.5 27.6525 82.1049 28.3367 81.4017C29.021 80.6984 29.4054 79.7446 29.4054 78.75V75H14.8108C10.9401 75 7.22786 73.4196 4.49084 70.6066C1.75383 67.7936 0.216187 63.9782 0.216187 60V15ZM7.51348 60C7.51348 61.9891 8.2823 63.8968 9.65081 65.3033C11.0193 66.7098 12.8754 67.5 14.8108 67.5H73.1892C75.1245 67.5 76.9806 66.7098 78.3491 65.3033C79.7176 63.8968 80.4865 61.9891 80.4865 60H7.51348ZM80.4865 52.5V15C80.4865 13.0109 79.7176 11.1032 78.3491 9.6967C76.9806 8.29018 75.1245 7.5 73.1892 7.5H14.8108C12.8754 7.5 11.0193 8.29018 9.65081 9.6967C8.2823 11.1032 7.51348 13.0109 7.51348 15V52.5H80.4865ZM51.2973 78.75V75H36.7027V78.75C36.7027 80.0625 36.4838 81.33 36.0824 82.5H51.954C51.5292 81.2975 51.3071 80.0293 51.2973 78.75Z" fill="#3BDED7"/>
<path d="M27.4404 38.4731H19.663M28.2182 16.8907L23.5517 12.0946L18.8852 16.8907V47.266H28.2182V16.8907Z" stroke="#3BDED7" stroke-width="4" stroke-linecap="round" stroke-linejoin="round"/>
<path d="M52.3799 45.3435L52.3799 14.873C52.3799 12.8611 50.9126 11.2251 49.1083 11.2251L39.2937 11.2251C37.4895 11.2251 36.0222 12.8611 36.0222 14.873L36.0222 45.3435C36.0222 47.3554 37.4895 48.9913 39.2937 48.9913L49.1083 48.9913C50.9126 48.9913 52.3799 47.3554 52.3799 45.3435ZM39.2937 45.3435L39.2937 14.873C39.2937 14.7751 39.3199 14.7082 39.3199 14.679C39.3199 14.667 39.3166 14.6601 39.3068 14.6584L49.0331 14.6378C49.0495 14.6498 49.1083 14.7271 49.1083 14.873L49.1083 18.0917L44.201 18.0917L44.201 21.525L49.1083 21.525L49.1083 24.9583L42.5653 24.9583L42.5653 28.3916L49.1083 28.3916L49.1083 31.8249L44.201 31.8249L44.201 35.2582L49.1083 35.2582L49.1083 38.6915L42.5653 38.6915L42.5653 42.1247L49.1083 42.1247L49.1083 45.3435C49.1067 45.4791 49.0625 45.5529 49.0953 45.558L39.369 45.5786C39.3526 45.5666 39.2937 45.4894 39.2937 45.3435Z" fill="#3BDED7"/>
<path d="M61.1437 47.8202C61.606 48.3081 62.1594 48.6951 62.7706 48.9579C63.3819 49.2208 64.0385 49.3542 64.7011 49.3501C66.0306 49.3213 67.2978 48.7656 68.2381 47.7992C69.1784 46.8328 69.719 45.5304 69.747 44.164L69.747 27.0498L70.0246 26.7646C71.4149 25.2568 72.1888 23.2578 72.1864 21.1805C72.1841 19.1031 71.4057 17.106 70.0119 15.6015L65.9752 11.297C65.8093 11.1176 65.6098 10.9746 65.3886 10.8765C65.1675 10.7785 64.9293 10.7275 64.6885 10.7266C64.2216 10.7515 63.7806 10.955 63.4522 11.297L59.4155 15.6015C58.0217 17.106 57.2433 19.1031 57.241 21.1805C57.2387 23.2578 58.0125 25.2568 59.4029 26.7646L59.693 27.0628L59.6804 44.1899C59.6745 44.865 59.801 45.5344 60.0524 46.1582C60.3038 46.7819 60.675 47.3472 61.1437 47.8202ZM61.9511 18.1816L64.7137 15.1866L67.5268 18.0779C68.3078 18.9077 68.7401 20.0197 68.7307 21.1742C68.7213 22.3287 68.2708 23.4331 67.4764 24.2493C67.116 24.6199 66.6873 24.9128 66.2155 25.1111C65.7437 25.3095 65.2381 25.4091 64.7284 25.4043C64.2186 25.3994 63.7149 25.2902 63.2467 25.083C62.7785 24.8758 62.3552 24.5748 62.0015 24.1975C61.2517 23.3886 60.8292 22.3169 60.8198 21.1998C60.8105 20.0826 61.2149 19.0036 61.9511 18.1816ZM63.2504 44.2029L63.2504 28.9816C63.7326 29.0789 64.2224 29.131 64.7137 29.1372C65.2054 29.1381 65.6959 29.086 66.177 28.9816L66.1644 44.1899C66.1555 44.5859 65.9984 44.9631 65.7259 45.2432C65.4534 45.5232 65.0864 45.6847 64.7011 45.6939C64.507 45.6915 64.3154 45.6489 64.1377 45.5687C63.9599 45.4885 63.7998 45.3723 63.6667 45.2271C63.5352 45.0929 63.4307 44.9334 63.3593 44.7576C63.2879 44.5818 63.2508 44.3933 63.2504 44.2029Z" fill="#3BDED7"/>
</svg>
