<svg width="35" height="35" viewBox="0 0 38 37" fill="none" xmlns="http://www.w3.org/2000/svg">
<path d="M27.4334 2.45256C29.3691 0.515814 32.5104 0.515814 34.4461 2.45256L35.2796 3.28741C37.2154 5.22436 37.2154 8.36467 35.2796 10.3002L21.695 23.8906C21.0957 24.483 20.3586 24.9169 19.5457 25.1511L12.657 27.1212C12.0783 27.2865 11.4584 27.1212 11.0313 26.639C10.611 26.2739 10.4457 25.654 10.611 25.0754L12.5812 18.1872C12.8154 17.3744 13.2494 16.6374 13.8419 16.0381L27.4334 2.45256ZM32.0488 4.7904C31.4633 4.14498 30.4162 4.14498 29.7686 4.7904L27.764 6.79417L30.9397 9.96962L32.9444 7.90317C33.5919 7.31767 33.5919 6.27067 32.9444 5.62525L32.0488 4.7904ZM15.7638 19.0964L14.6065 23.126L18.6364 21.9688C18.912 21.893 19.1531 21.7484 19.3529 21.5486L28.6044 12.3047L25.4287 9.12926L16.184 18.3801C15.9843 18.5798 15.8396 18.8209 15.7638 19.0964ZM15.5089 5.14101C16.4251 5.14101 17.1622 5.88149 17.1622 6.79417C17.1622 7.7103 16.4251 8.44733 15.5089 8.44733H7.79354C6.27182 8.44733 5.03804 9.68031 5.03804 11.2026V29.9384C5.03804 31.4607 6.27182 32.6937 7.79354 32.6937H26.5309C28.0533 32.6937 29.2864 31.4607 29.2864 29.9384V22.2237C29.2864 21.3075 30.0235 20.5705 30.9397 20.5705C31.8559 20.5705 32.593 21.3075 32.593 22.2237V29.9384C32.593 33.2861 29.8789 36 26.5309 36H7.79354C4.44561 36 1.73145 33.2861 1.73145 29.9384V11.2026C1.73145 7.85495 4.44561 5.14101 7.79354 5.14101H15.5089Z" fill="#000801" stroke="#000801" stroke-width="1.5"/>
</svg>
