<svg width="53" height="94" viewBox="0 0 53 94" fill="none" xmlns="http://www.w3.org/2000/svg">
<path d="M44.1711 0H8.82892C3.95241 0 0 3.94506 0 8.8125V85.1875C0 90.0549 3.95241 94 8.82892 94H44.1711C49.0476 94 53 90.0549 53 85.1875V8.8125C53 3.94506 49.0476 0 44.1711 0ZM47.1141 85.1875C47.1141 86.809 45.7956 88.125 44.1711 88.125H8.82892C7.2044 88.125 5.88594 86.809 5.88594 85.1875V8.8125C5.88594 7.191 7.2044 5.875 8.82892 5.875H44.1711C45.7956 5.875 47.1141 7.191 47.1141 8.8125V85.1875ZM26.5044 73.4537C23.2598 73.4537 20.6332 76.0783 20.6332 79.3125C20.6332 82.5467 23.2613 85.1729 26.5044 85.1729C29.749 85.1729 32.3756 82.5468 32.3756 79.3126C32.3756 76.0783 29.749 73.4537 26.5044 73.4537ZM32.3904 8.8125H20.6185C18.9939 8.8125 17.6755 10.1285 17.6755 11.75C17.6755 13.3715 18.9939 14.6875 20.6185 14.6875H32.3904C34.0149 14.6875 35.3333 13.3715 35.3333 11.75C35.3333 10.1285 34.0149 8.8125 32.3904 8.8125Z" fill="#3BDED7"/>
</svg>
