<svg width="97" height="96" viewBox="0 0 97 96" fill="none" xmlns="http://www.w3.org/2000/svg">
<path d="M92 48C92 23.6988 72.3012 4 48 4C23.6988 4 4 23.6988 4 48C4 72.3012 23.6988 92 48 92" stroke="#3BDED7" stroke-width="7" stroke-linecap="round" stroke-linejoin="round"/>
<path d="M6.772 32.6H89.228M52.4 4.21997C52.4 4.21997 65.6 21.6 65.6 48L52.4 4.21997ZM43.6 91.78C43.6 91.78 30.4 74.4 30.4 48C30.4 21.6 43.6 4.21997 43.6 4.21997V91.78ZM6.772 63.4H48H6.772Z" stroke="#3BDED7" stroke-width="7" stroke-linecap="round" stroke-linejoin="round"/>
<path d="M91.4676 74.0348C93.6412 75.3724 93.5048 78.624 91.2696 78.8792L79.9748 80.1596L74.9104 90.3324C73.9072 92.352 70.8052 91.362 70.2904 88.8628L64.7684 61.9524C64.3328 59.8404 66.2336 58.5116 68.0684 59.6424L91.4676 74.0348V74.0348Z" stroke="#3BDED7" stroke-width="7"/>
</svg>
