<svg width="141" height="121" viewBox="0 0 141 121" fill="none" xmlns="http://www.w3.org/2000/svg">
<path d="M18.996 110.461C18.996 116.517 14.9299 120.372 8.42406 120.372H0.562866V100.55H8.42406C14.6588 100.55 18.996 104.405 18.996 110.461ZM12.7613 110.461C12.7613 107.983 11.1348 106.332 8.42406 106.332H6.79761V114.59H8.42406C11.1348 114.59 12.7613 112.939 12.7613 110.461Z" fill="#D7E4DA"/>
<path d="M34.7185 115.141V120.372H20.8936V100.55H34.4474V105.781H27.1284V107.983H33.3631V112.663H27.1284V115.141H34.7185Z" fill="#D7E4DA"/>
<path d="M52.0673 114.04C52.0673 117.619 49.6277 120.647 44.2061 120.647C40.4111 120.647 36.616 119.27 35.8028 115.416L40.9532 113.765C40.9532 114.866 42.3086 115.416 43.9351 115.416C45.0194 115.416 45.8326 114.866 45.8326 114.315C45.8326 113.214 44.7483 113.214 42.5797 112.663C39.0557 111.838 36.3449 110.461 36.3449 106.332C36.3449 102.478 39.5979 100 43.9351 100C47.4591 100 50.4409 101.652 51.2541 105.231L46.1037 106.607C45.8326 105.781 45.0194 105.231 44.2061 105.231C43.1218 105.231 42.5797 105.781 42.5797 106.332C42.5797 107.158 43.9351 107.433 45.5615 107.708C50.1698 109.36 52.0673 110.736 52.0673 114.04Z" fill="#D7E4DA"/>
<path d="M59.9286 100.55V120.372H53.6938V100.55H59.9286Z" fill="#D7E4DA"/>
<path d="M81.6146 109.085V120.372H78.9038L78.3617 118.169C77.0063 119.821 74.8377 120.647 72.1269 120.647C66.1633 120.647 61.826 116.242 61.826 110.461C61.826 104.68 66.1633 100.275 72.1269 100.275C75.6509 100.275 78.6328 101.927 80.5303 104.405L75.3798 107.983C74.5666 107.158 73.4823 106.332 72.1269 106.332C69.6872 106.332 68.0608 107.983 68.0608 110.461C68.0608 112.939 69.6872 114.866 72.1269 114.866C73.7534 114.866 75.1088 114.315 75.6509 113.214H71.5848V109.085H81.6146Z" fill="#D7E4DA"/>
<path d="M102.216 100.55V120.372H96.5238L90.5601 110.461V120.372H84.3254V100.55H90.018L96.2527 110.461V100.55H102.216Z" fill="#D7E4DA"/>
<path d="M118.752 115.141V120.372H104.927V100.55H118.481V105.781H111.162V107.983H117.397V112.663H111.162V115.141H118.752Z" fill="#D7E4DA"/>
<path d="M140.438 110.461C140.438 116.242 136.101 120.647 130.137 120.647C124.174 120.647 119.836 116.242 119.836 110.461C119.836 104.68 124.174 100.275 130.137 100.275C136.101 100.275 140.438 104.68 140.438 110.461ZM134.203 110.461C134.203 107.983 132.577 106.332 130.137 106.332C127.698 106.332 126.071 107.983 126.071 110.461C126.071 112.939 127.698 114.59 130.137 114.59C132.577 114.59 134.203 112.939 134.203 110.461Z" fill="#D7E4DA"/>
<path d="M70.7353 22.5178L67.4863 38.2482C64.8978 39.4953 63.2376 42.114 63.2197 44.9822C63.2376 47.8504 64.8799 50.4691 67.4685 51.7162L70.7175 67.4644L73.9665 51.7518C76.555 50.5048 78.2331 47.886 78.2331 45C78.2331 42.1318 76.5729 39.4953 73.9665 38.2482L70.7353 22.5178ZM70.7353 41.3124C70.7889 41.3124 70.8246 41.3124 70.8782 41.3124C70.9317 41.3124 70.9674 41.3124 71.021 41.3124C71.0745 41.3124 71.1102 41.3124 71.1638 41.3302C71.2173 41.3302 71.2531 41.348 71.3066 41.348C71.3602 41.348 71.3959 41.3658 71.4494 41.3658C71.503 41.3836 71.5387 41.3836 71.5922 41.4014C71.6458 41.4192 71.6815 41.4192 71.7351 41.4371C71.7886 41.4549 71.8243 41.4727 71.8779 41.4727C71.9314 41.4905 71.9671 41.5083 72.0207 41.5261C72.0742 41.544 72.1099 41.5618 72.1456 41.5796C72.1992 41.5974 72.2349 41.6152 72.2706 41.633C72.3242 41.6508 72.342 41.6687 72.3956 41.6865C72.4491 41.7043 72.467 41.7399 72.5205 41.7399C72.5741 41.7577 72.5919 41.7934 72.6455 41.7934C72.699 41.8112 72.7169 41.8468 72.7705 41.8646C72.824 41.9002 72.8419 41.9181 72.8954 41.9359C72.9311 41.9715 72.9668 41.9893 73.0025 42.0071C73.0382 42.0428 73.0739 42.0606 73.1096 42.0784C73.1453 42.114 73.1811 42.1318 73.2168 42.1675C73.2525 42.2031 73.2882 42.2209 73.3239 42.2565C73.3596 42.2922 73.3774 42.31 73.431 42.3456C73.4667 42.3812 73.4845 42.3991 73.5202 42.4347C73.5559 42.4703 73.5738 42.4881 73.6095 42.5416C73.6452 42.5772 73.6631 42.595 73.6988 42.6485C73.7345 42.6841 73.7523 42.7197 73.788 42.7554C73.8237 42.791 73.8416 42.8266 73.8594 42.8622C73.8951 42.8979 73.913 42.9335 73.9308 42.9691C73.9665 43.0048 73.9844 43.0404 74.0022 43.0938C74.0379 43.1473 74.0558 43.1651 74.0736 43.2185C74.0915 43.272 74.1272 43.2898 74.1272 43.3432C74.145 43.3967 74.1808 43.4145 74.1808 43.4679C74.1986 43.5214 74.2165 43.5392 74.2343 43.5926C74.2522 43.6461 74.27 43.6817 74.2879 43.7173C74.3057 43.7708 74.3236 43.8064 74.3414 43.8421C74.3593 43.8955 74.3771 43.9311 74.395 43.9846C74.4128 44.038 74.4307 44.0736 74.4307 44.1271C74.4485 44.1805 74.4485 44.2162 74.4664 44.2696C74.4842 44.323 74.4842 44.3587 74.5021 44.4121C74.5199 44.4656 74.5199 44.5012 74.5199 44.5546C74.5199 44.6081 74.5378 44.6437 74.5378 44.6972C74.5378 44.7506 74.5556 44.7862 74.5556 44.8397C74.5556 44.8931 74.5556 44.9287 74.5556 44.9822C74.5556 45.0356 74.5556 45.0713 74.5556 45.1247C74.5556 45.2672 74.5556 45.3741 74.5378 45.5166C74.5199 45.6592 74.5021 45.766 74.4842 45.8907C74.4485 46.0154 74.4307 46.1402 74.3771 46.2649C74.3236 46.3896 74.2879 46.4964 74.2343 46.6212C74.1808 46.7459 74.1272 46.8527 74.0558 46.9596C74.0022 47.0665 73.913 47.1912 73.8416 47.2981C73.7702 47.405 73.6988 47.5119 73.6095 47.601C73.5202 47.69 73.431 47.7791 73.3417 47.8682C73.2525 47.9573 73.1453 48.0285 73.0382 48.0998C72.9311 48.171 72.824 48.2423 72.6991 48.3135C72.5919 48.367 72.467 48.4383 72.3599 48.4917C72.2349 48.5451 72.1278 48.5986 72.0028 48.6342C71.8779 48.6877 71.7708 48.7055 71.6279 48.7411C71.503 48.7767 71.378 48.7945 71.2531 48.7945C71.1102 48.8124 71.0031 48.8124 70.8603 48.8124C70.7175 48.8124 70.6104 48.8124 70.4676 48.7945C70.3248 48.7767 70.2176 48.7589 70.0927 48.7411C69.9677 48.7055 69.8428 48.6877 69.7178 48.6342C69.5928 48.5808 69.4857 48.5451 69.3608 48.4917C69.2358 48.4383 69.1287 48.3848 69.0216 48.3135C68.9145 48.2601 68.7895 48.171 68.6824 48.0998C68.5753 48.0285 68.4682 47.9573 68.3789 47.8682C68.2896 47.7791 68.2004 47.69 68.1111 47.601C68.0219 47.5119 67.9505 47.405 67.8791 47.2981C67.8076 47.1912 67.7362 47.0843 67.6648 46.9596C67.6113 46.8527 67.5399 46.728 67.4863 46.6212C67.4328 46.4964 67.3792 46.3896 67.3435 46.2649C67.2899 46.1402 67.2721 46.0333 67.2364 45.8907C67.2007 45.766 67.1828 45.6413 67.1828 45.5166C67.165 45.3741 67.165 45.2672 67.165 45.1247C67.165 44.9822 67.165 44.8753 67.1828 44.7328C67.2007 44.5903 67.2185 44.4834 67.2364 44.3587C67.2721 44.234 67.2899 44.1093 67.3435 43.9846C67.3971 43.8599 67.4328 43.753 67.4863 43.6283C67.5399 43.5036 67.5934 43.3967 67.6648 43.2898C67.7184 43.1829 67.8076 43.0582 67.8791 42.9513C67.9505 42.8444 68.0219 42.7375 68.1111 42.6485C68.2004 42.5594 68.2896 42.4703 68.3789 42.3812C68.4682 42.2922 68.5753 42.2209 68.6824 42.1497C68.7895 42.0784 68.8966 42.0071 69.0216 41.9359C69.1287 41.8824 69.2536 41.8112 69.3608 41.7577C69.4857 41.7043 69.5928 41.6508 69.7178 41.6152C69.8428 41.5618 69.9499 41.544 70.0927 41.5083C70.2176 41.4727 70.3426 41.4549 70.4676 41.4549C70.4676 41.3124 70.5925 41.3124 70.7353 41.3124Z" fill="#D7E4DA"/>
<path d="M70.7417 0L66.9928 7.76722C49.1409 9.60214 35.0915 23.7648 33.4492 41.5974L25.7729 45L33.4492 48.4026C35.0915 66.2352 49.1409 80.3979 66.9749 82.2506V78.7233V74.715C66.7429 74.6793 66.4929 74.6615 66.2609 74.6437C65.5289 74.5368 64.797 74.3943 64.0472 74.2162C63.3153 74.0558 62.5834 73.8599 61.8872 73.6283C61.1731 73.3967 60.459 73.1651 59.7628 72.8979C59.0666 72.6306 58.3882 72.3278 57.7098 72.0071C57.0315 71.6686 56.3709 71.3302 55.7283 70.9561C55.0856 70.582 54.4608 70.19 53.8181 69.7625C53.2112 69.3349 52.6042 68.8896 52.0151 68.4264C51.426 67.9632 50.8547 67.4644 50.3192 66.9656C49.7658 66.4489 49.2302 65.9323 48.7304 65.38C48.2126 64.8278 47.7307 64.2755 47.2665 63.6876C46.8024 63.0998 46.3561 62.5119 45.9276 61.8884C45.4992 61.2827 45.1064 60.6413 44.7315 59.9822C44.3567 59.3409 44.0175 58.6817 43.6783 58.0048C43.3391 57.3278 43.0535 56.633 42.7857 55.9561C42.5179 55.2791 42.268 54.5487 42.0538 53.8361C41.8217 53.1235 41.6253 52.3931 41.4647 51.6805C41.304 50.9501 41.1612 50.2197 41.0362 49.4715C40.9291 48.7411 40.8398 47.9929 40.7863 47.2447C40.7327 46.4964 40.697 45.7482 40.697 45.0178C40.697 44.2696 40.7327 43.5214 40.7863 42.791C40.8398 42.0428 40.9291 41.3124 41.0362 40.5641C41.1433 39.8337 41.2861 39.1033 41.4647 38.3551C41.6253 37.6247 41.8217 36.8943 42.0538 36.1995C42.2858 35.4869 42.5179 34.7743 42.7857 34.0796C43.0535 33.3848 43.357 32.7078 43.6783 32.0309C44.0175 31.3539 44.3567 30.6948 44.7315 30.0534C45.1064 29.4121 45.4992 28.7886 45.9276 28.1473C46.3561 27.5416 46.8024 26.9359 47.2665 26.348C47.7307 25.7601 48.2305 25.19 48.7304 24.6556C49.2481 24.1033 49.7658 23.5689 50.3192 23.0701C50.8726 22.5534 51.426 22.0724 52.0151 21.6093C52.6042 21.1461 53.1933 20.7007 53.8181 20.2732C54.4251 19.8456 55.0678 19.4537 55.7283 19.0796C56.3709 18.7055 57.0315 18.367 57.7098 18.0285C58.3882 17.69 59.0844 17.405 59.7628 17.1378C60.459 16.8705 61.1731 16.6211 61.8872 16.4074C62.6012 16.1758 63.3332 15.9798 64.0472 15.8195C64.7792 15.6591 65.5111 15.5166 66.2609 15.3919C66.4929 15.3563 66.7429 15.3385 66.9749 15.3207C67.4748 15.2494 67.9746 15.196 68.4923 15.1603C69.2421 15.1069 69.9919 15.0713 70.7238 15.0713V11.0273V7.53563L70.7417 0ZM70.7417 78.9549V82.4466V90L74.4906 82.2328C92.3781 80.4335 106.481 66.2173 108.123 48.3492L115.693 45L108.123 41.6508C106.499 23.7648 92.3781 9.54869 74.4906 7.74941V11.2411C74.5441 11.2411 74.5798 11.2589 74.6334 11.2589C74.5798 11.2589 74.5441 11.2411 74.4906 11.2411V15.285C74.7226 15.3207 74.9726 15.3385 75.2046 15.3563C75.9366 15.4632 76.6685 15.6057 77.4183 15.7838C78.1502 15.9442 78.8821 16.1401 79.5783 16.3717C80.2924 16.6033 81.0065 16.8349 81.7027 17.1021C82.3989 17.3694 83.0773 17.6722 83.7557 17.9929C84.434 18.3314 85.0946 18.6698 85.7372 19.0439C86.3799 19.4181 87.0047 19.81 87.6474 20.2375C88.2543 20.6651 88.8613 21.1105 89.4504 21.5736C90.0395 22.0368 90.6108 22.5356 91.1463 23.0344C91.6997 23.5511 92.2353 24.0677 92.7351 24.62C93.2528 25.1722 93.7348 25.7245 94.199 26.3124C94.6631 26.9002 95.1094 27.4881 95.5379 28.1116C95.9663 28.7173 96.3591 29.3587 96.734 30.0178C97.1088 30.6591 97.448 31.3183 97.7872 31.9953C98.1264 32.6722 98.412 33.367 98.6798 34.0439C98.9476 34.7387 99.1975 35.4513 99.4117 36.1639C99.6438 36.8765 99.8402 37.6069 100.001 38.3195C100.162 39.0499 100.304 39.7803 100.429 40.5285C100.536 41.2589 100.626 42.0071 100.679 42.7553C100.733 43.5036 100.768 44.2518 100.768 44.9822C100.768 45.7304 100.733 46.4786 100.679 47.209C100.626 47.9572 100.536 48.6876 100.429 49.4359C100.322 50.1663 100.179 50.8967 100.001 51.6449C99.8402 52.3753 99.6438 53.1057 99.4117 53.8005C99.1797 54.5131 98.9476 55.2257 98.6798 55.9204C98.412 56.6152 98.1085 57.2922 97.7872 57.9691C97.448 58.6461 97.1088 59.3052 96.734 59.9466C96.3591 60.5879 95.9663 61.2114 95.5379 61.8527C95.1094 62.4584 94.6631 63.0641 94.199 63.652C93.7348 64.2399 93.235 64.81 92.7351 65.3444C92.2174 65.8967 91.6997 66.4311 91.1463 66.9299C90.5929 67.4466 90.0395 67.9276 89.4504 68.3907C88.8613 68.8539 88.2722 69.2993 87.6474 69.7268C87.0226 70.1544 86.3977 70.5463 85.7372 70.9204C85.0946 71.2945 84.434 71.633 83.7557 71.9715C83.0773 72.31 82.3811 72.595 81.7027 72.8622C81.0065 73.1295 80.2924 73.3789 79.5783 73.5926C78.8643 73.8242 78.1323 74.0202 77.4183 74.1805C76.6863 74.3409 75.9544 74.4834 75.2046 74.6081C74.9726 74.6437 74.7226 74.6615 74.4906 74.6793C73.9907 74.7506 73.4909 74.804 72.9732 74.8397C72.2234 74.8931 71.4736 74.9287 70.7417 74.9287V78.9549" fill="url(#paint0_linear_68_90)"/>
<path d="M33.235 42.0783C26.487 44.9999 33.235 42.0783 26.487 44.9999H33.0922C33.0922 44.2695 33.1279 43.5213 33.1636 42.7909C33.1814 42.5415 33.1993 42.2921 33.235 42.0783Z" fill="#D7E4DA"/>
<path d="M67.3499 7.67812L70.4918 0.944153V7.5356C69.5635 7.5356 68.4924 7.58905 67.3499 7.67812Z" fill="#D7E4DA"/>
<path d="M74.0979 82.3041L70.956 89.038V82.4466C71.8843 82.4288 72.9554 82.3932 74.0979 82.3041Z" fill="#D7E4DA"/>
<path d="M108.213 42.0783C114.961 44.9999 108.213 42.0783 114.961 44.9999H108.356C108.356 44.2695 108.32 43.5213 108.284 42.7909C108.266 42.5415 108.249 42.2921 108.213 42.0783Z" fill="#D7E4DA"/>
<defs>
<linearGradient id="paint0_linear_68_90" x1="25.7691" y1="44.9998" x2="64.458" y2="44.9998" gradientUnits="userSpaceOnUse">
<stop stop-color="#8BFBA3"/>
<stop offset="1" stop-color="#3BDED7"/>
</linearGradient>
</defs>
</svg>
