<svg width="54" height="160" viewBox="0 0 54 160" fill="none" xmlns="http://www.w3.org/2000/svg">
<path d="M27.0093 0.0634766L15.4468 55.9938C6.23499 60.4277 0.326713 69.7389 0.263184 79.9368C0.326713 90.1347 6.17145 99.4459 15.3833 103.88L26.9457 159.873L38.5082 104.006C47.72 99.5726 53.6918 90.2614 53.6918 80.0001C53.6918 69.8022 47.7835 60.4277 38.5082 55.9938L27.0093 0.0634766ZM27.0093 66.8885C27.1998 66.8885 27.3269 66.8885 27.5175 66.8885C27.7081 66.8885 27.8351 66.8885 28.0257 66.8885C28.2163 66.8885 28.3434 66.8885 28.534 66.9518C28.7246 66.9518 28.8516 67.0152 29.0422 67.0152C29.2328 67.0152 29.3599 67.0785 29.5505 67.0785C29.741 67.1419 29.8681 67.1419 30.0587 67.2052C30.2493 67.2685 30.3763 67.2685 30.5669 67.3319C30.7575 67.3952 30.8846 67.4586 31.0752 67.4586C31.2658 67.5219 31.3928 67.5853 31.5834 67.6486C31.774 67.7119 31.9011 67.7753 32.0281 67.8386C32.2187 67.902 32.3458 67.9653 32.4728 68.0286C32.6634 68.092 32.7269 68.1553 32.9175 68.2187C33.1081 68.282 33.1717 68.4087 33.3622 68.4087C33.5528 68.472 33.6164 68.5987 33.807 68.5987C33.9975 68.6621 34.0611 68.7887 34.2517 68.8521C34.4423 68.9788 34.5058 69.0421 34.6964 69.1054C34.8234 69.2321 34.9505 69.2955 35.0775 69.3588C35.2046 69.4855 35.3317 69.5488 35.4587 69.6122C35.5858 69.7389 35.7129 69.8022 35.8399 69.9289C35.967 70.0556 36.094 70.1189 36.2211 70.2456C36.3481 70.3723 36.4117 70.4356 36.6023 70.5623C36.7293 70.689 36.7929 70.7523 36.9199 70.879C37.047 71.0057 37.1105 71.069 37.2376 71.259C37.3646 71.3857 37.4282 71.4491 37.5552 71.6391C37.6823 71.7658 37.7458 71.8925 37.8729 72.0191C37.9999 72.1458 38.0635 72.2725 38.127 72.3992C38.254 72.5259 38.3176 72.6526 38.3811 72.7792C38.5082 72.9059 38.5717 73.0326 38.6352 73.2226C38.7623 73.4127 38.8258 73.476 38.8893 73.666C38.9529 73.856 39.0799 73.9194 39.0799 74.1094C39.1435 74.2994 39.2705 74.3628 39.2705 74.5528C39.3341 74.7428 39.3976 74.8062 39.4611 74.9962C39.5246 75.1862 39.5882 75.3129 39.6517 75.4396C39.7152 75.6296 39.7788 75.7563 39.8423 75.883C39.9058 76.073 39.9694 76.1997 40.0329 76.3897C40.0964 76.5797 40.1599 76.7064 40.1599 76.8964C40.2235 77.0864 40.2235 77.2131 40.287 77.4031C40.3505 77.5932 40.3505 77.7198 40.4141 77.9099C40.4776 78.0999 40.4776 78.2266 40.4776 78.4166C40.4776 78.6066 40.5411 78.7333 40.5411 78.9233C40.5411 79.1134 40.6047 79.24 40.6047 79.4301C40.6047 79.6201 40.6047 79.7468 40.6047 79.9368C40.6047 80.1268 40.6047 80.2535 40.6047 80.4435C40.6047 80.9503 40.6047 81.3303 40.5411 81.837C40.4776 82.3438 40.4141 82.7238 40.3505 83.1672C40.2235 83.6106 40.1599 84.054 39.9694 84.4974C39.7788 84.9408 39.6517 85.3208 39.4611 85.7642C39.2705 86.2076 39.0799 86.5876 38.8258 86.9677C38.6352 87.3477 38.3176 87.7911 38.0635 88.1712C37.8093 88.5512 37.5552 88.9313 37.2376 89.248C36.9199 89.5647 36.6023 89.8814 36.2846 90.1981C35.967 90.5148 35.5858 90.7681 35.2046 91.0215C34.8234 91.2749 34.4423 91.5283 33.9975 91.7816C33.6164 91.9716 33.1717 92.225 32.7905 92.415C32.3458 92.605 31.9646 92.7951 31.5199 92.9218C31.0752 93.1118 30.694 93.1751 30.1858 93.3018C29.741 93.4285 29.2963 93.4918 28.8516 93.4918C28.3434 93.5552 27.9622 93.5552 27.454 93.5552C26.9457 93.5552 26.5645 93.5552 26.0563 93.4918C25.5481 93.4285 25.1669 93.3651 24.7222 93.3018C24.2775 93.1751 23.8328 93.1118 23.3881 92.9218C22.9433 92.7317 22.5622 92.605 22.1175 92.415C21.6727 92.225 21.2916 92.035 20.9104 91.7816C20.5292 91.5916 20.0845 91.2749 19.7033 91.0215C19.3221 90.7681 18.941 90.5148 18.6233 90.1981C18.3057 89.8814 17.988 89.5647 17.6704 89.248C17.3527 88.9313 17.0986 88.5512 16.8445 88.1712C16.5904 87.7911 16.3362 87.4111 16.0821 86.9677C15.8915 86.5876 15.6374 86.1442 15.4468 85.7642C15.2562 85.3208 15.0656 84.9408 14.9386 84.4974C14.748 84.054 14.6845 83.6739 14.5574 83.1672C14.4303 82.7238 14.3668 82.2804 14.3668 81.837C14.3033 81.3303 14.3033 80.9503 14.3033 80.4435C14.3033 79.9368 14.3033 79.5567 14.3668 79.05C14.4303 78.5433 14.4939 78.1632 14.5574 77.7198C14.6845 77.2765 14.748 76.8331 14.9386 76.3897C15.1292 75.9463 15.2562 75.5663 15.4468 75.1229C15.6374 74.6795 15.828 74.2994 16.0821 73.9194C16.2727 73.5393 16.5904 73.0959 16.8445 72.7159C17.0986 72.3358 17.3527 71.9558 17.6704 71.6391C17.988 71.3224 18.3057 71.0057 18.6233 70.689C18.941 70.3723 19.3221 70.1189 19.7033 69.8655C20.0845 69.6122 20.4657 69.3588 20.9104 69.1054C21.2916 68.9154 21.7363 68.6621 22.1175 68.472C22.5622 68.282 22.9433 68.092 23.3881 67.9653C23.8328 67.7753 24.2139 67.7119 24.7222 67.5853C25.1669 67.4586 25.6116 67.3952 26.0563 67.3952C26.0563 66.8885 26.501 66.8885 27.0093 66.8885Z" fill="#D7E4DA"/>
</svg>
